<?xml version="1.0" standalone="no"?>
<!DOCTYPE svg PUBLIC "-//W3C//DTD SVG 20010904//EN"
 "http://www.w3.org/TR/2001/REC-SVG-20010904/DTD/svg10.dtd">
<svg version="1.0" xmlns="http://www.w3.org/2000/svg"
 width="512.000000pt" height="512.000000pt" viewBox="0 0 512.000000 512.000000"
 preserveAspectRatio="xMidYMid meet">
<metadata>
Created by potrace 1.14, written by Peter Selinger 2001-2017
</metadata>
<g transform="translate(0.000000,512.000000) scale(0.100000,-0.100000)"
fill="#000000" stroke="none">
<path d="M1391 5066 c-153 -39 -208 -58 -221 -73 -21 -27 -30 -271 -30 -836 0
-367 -1 -389 -17 -382 -69 30 -126 44 -179 45 -247 1 -437 -221 -394 -461 54
-299 401 -429 640 -239 46 37 92 103 122 179 23 55 23 62 28 650 l5 595 155
38 c201 51 204 53 209 185 5 148 -8 299 -27 323 -30 36 -75 32 -291 -24z"/>
<path d="M4495 4711 c-214 -54 -754 -189 -1200 -300 -473 -118 -825 -211 -847
-223 -43 -24 -84 -78 -98 -129 -6 -21 -10 -430 -10 -1082 l0 -1047 -60 30
c-108 54 -197 73 -334 68 -103 -3 -134 -8 -207 -34 -212 -75 -374 -242 -447
-462 -22 -67 -26 -94 -26 -212 0 -120 3 -144 27 -215 38 -114 91 -198 177
-285 87 -87 172 -139 285 -177 70 -24 96 -27 215 -27 120 0 144 3 215 27 116
38 199 91 290 182 59 58 92 102 122 160 83 162 77 79 83 1095 l5 905 1035 262
c569 144 1041 262 1048 262 9 1 12 -93 12 -439 l0 -440 -49 25 c-146 73 -339
95 -495 55 -196 -50 -371 -191 -460 -370 -61 -125 -79 -212 -73 -355 3 -84 11
-129 31 -190 98 -289 370 -485 674 -485 119 0 202 20 317 75 140 68 244 173
319 321 76 152 70 30 74 1554 2 1228 1 1369 -13 1407 -22 57 -50 90 -96 113
-76 39 -97 36 -514 -69z"/>
</g>
</svg>
